<svg width="16" height="16" viewBox="0 0 16 16" fill="none" xmlns="http://www.w3.org/2000/svg">
<path fill-rule="evenodd" clip-rule="evenodd" d="M7.20601 1.04499C5.89773 1.19437 4.6581 1.70973 3.62952 2.53187C2.60093 3.35402 1.82509 4.44961 1.39111 5.69282C0.957126 6.93604 0.8826 8.27645 1.17609 9.5601C1.46958 10.8438 2.11918 12.0186 3.05028 12.9497C3.98139 13.8808 5.15624 14.5304 6.4399 14.8239C7.72355 15.1174 9.06396 15.0429 10.3072 14.6089C11.5504 14.1749 12.646 13.3991 13.4681 12.3705C14.2903 11.3419 14.8056 10.1023 14.955 8.79399L14.958 8.766C14.986 8.51132 15 8.2553 15 7.9991C15 7.47216 14.3363 7.09421 13.9983 7.49916C13.8978 7.61935 13.6121 8.04849 13.4982 8.15607C13.1089 8.52362 12.6498 8.80927 12.1481 8.99609C11.6464 9.18291 11.1123 9.26711 10.5774 9.24368C10.0426 9.22026 9.51789 9.08969 9.03444 8.85972C8.55098 8.62975 8.11862 8.30506 7.76297 7.90489C7.40733 7.50473 7.13564 7.03723 6.96403 6.53012C6.79241 6.02301 6.72435 5.4866 6.76388 4.9527C6.80341 4.4188 6.94973 3.89826 7.19417 3.42196C7.4386 2.94565 8.08831 2.34329 8.49901 1.99987C8.90296 1.66191 8.52684 1 8.0009 1C7.73563 0.999941 7.47057 1.01496 7.20701 1.04499" fill="#5560F0"/>
</svg>
